<svg xmlns:xlink="http://www.w3.org/1999/xlink" xmlns="http://www.w3.org/2000/svg" viewBox="0 0 100 100" preserveAspectRatio="xMidYMid meet" class="css-xjy3yr" id="cgcdhfdf" width="32"  height="32" ><defs id="SvgjsDefs1037"><linearGradient id="SvgjsLinearGradient1042"><stop id="SvgjsStop1043" stop-color="#905e26" offset="0"></stop><stop id="SvgjsStop1044" stop-color="#f5ec9b" offset="0.5"></stop><stop id="SvgjsStop1045" stop-color="#905e26" offset="1"></stop></linearGradient></defs><g id="SvgjsG1038" featurekey="rootContainer" transform="matrix(1,0,0,1,0,0)" fill="#FFFFFF"><rect y="0" height="1" width="1" opacity="0" fill="#FFFFFF"></rect><rect y="95" width="100" height="5" fill="#FFFFFF"></rect></g><g id="SvgjsG1039" featurekey="nameFeature-0" transform="matrix(2.3062216977716803,0,0,2.3062216977716803,-5.534739848455376,-9.674655974491362)" fill="#FFFFFF"><path d="M23.08 12 c0.36 0 0.680352 0.319531 0.680352 0.679532 l0 26.68 c0 0.36 -0.32 0.64 -0.69 0.64 l-0.009219 0 l-0.007188 0 c-0.033203 -0.001211 -0.065586 -0.004805 -0.101602 -0.011602 c-0.001211 0 -0.001992 -0.000391 -0.003203 -0.000391 c-0.150391 -0.028789 -0.286406 -0.105976 -0.385625 -0.214766 l-0.083203 -0.092812 l-14.92 -24.6328 l0 5.0328 l11.8 18.92 c0.2 0.32 0.12 0.72 -0.2 0.92 c-0.12 0.04 -0.24 0.08 -0.36 0.08 c-0.2 0 -0.44 -0.12 -0.56 -0.32 l-10.68 -17.088 l0 16.688 c0 0.102812 -0.026406 0.199219 -0.071992 0.284414 c-0.083203 0.256016 -0.32 0.435624 -0.6084 0.435624 l-3.8 0 c-0.36 0 -0.68 -0.28 -0.68 -0.64 l0.001211 -0.040781 c-0.000781 -0.013203 -0.001172 -0.026016 -0.001172 -0.039219 l0 -26.6 c0 -0.36 0.28 -0.68 0.68 -0.68 c0.36 0 0.64 0.32 0.64 0.68 l0 26 l2.48 0 l0 -26 c0 -0.36 0.32 -0.68 0.68 -0.68 l0.206016 0.035195 c0.128008 0.036016 0.243594 0.112422 0.32 0.226406 l0.104414 0.174414 l14.8896 24.522 l0 -24.278 c0 -0.36 0.32 -0.68 0.68 -0.68 z M36.279 23.8616 l9.38404 15.0184 c0.097617 0.156406 0.119219 0.331602 0.078008 0.493204 c-0.026797 0.371602 -0.334414 0.626796 -0.678008 0.626796 l-4.76 0 c-0.338789 0 -0.642384 -0.248008 -0.676796 -0.610392 l-6.97 -11.142 l-8.4336 11.4724 c-0.12 0.2 -0.32 0.28 -0.52 0.28 c-0.16 0 -0.28 -0.04 -0.4 -0.12 c-0.32 -0.24 -0.36 -0.64 -0.16 -0.92 l8.7468 -11.938 l-8.7468 -13.982 c-0.2 -0.32 -0.08 -0.72 0.2 -0.92 c0.32 -0.2 0.76 -0.12 0.92 0.2 l16.4652 26.36 l3.241212 0 l-15.946 -25.56 c-0.065586 -0.091211 -0.100781 -0.2 -0.107969 -0.311602 l-0.011992 -0.128398 c0 -0.36 0.28 -0.68 0.64 -0.68 l15.28 0 c0.297188 0 0.54 0.218398 0.615584 0.497188 c0.106406 0.219219 0.083594 0.480428 -0.055625 0.702812 l-7.96 10.52 z M42.60704 13.32 l-12.914 0 l5.8408 9.348 z" fill="#FFFFFF"></path></g></svg>